<svg xmlns="http://www.w3.org/2000/svg" viewBox="0 0 180 44" fill="none">
  <rect width="44" height="44" rx="12" fill="#102223" />
  <path d="M12 12h20v6h-9.9L32 32h-6.8l-8-10.9V32H12V12Z" fill="#FBF6EF" />
  <circle cx="32" cy="12" r="4" fill="#FF6B35" />
  <path d="M60 29.6 52.9 13h5.2l4.3 10.8L66.7 13h5.2l-7.1 16.6H60Zm19.9.4c-5 0-8.8-3.6-8.8-8.6s3.8-8.7 8.8-8.7c5.1 0 8.8 3.7 8.8 8.7S85 30 79.9 30Zm0-4.1c2.4 0 4.1-1.8 4.1-4.5S82.3 17 79.9 17s-4.1 1.8-4.1 4.4c0 2.7 1.7 4.5 4.1 4.5Zm22.4 3.7V13h4.8v16.6h-4.8Zm17.9.4c-4.9 0-8.5-3.5-8.5-8.6s3.6-8.7 8.3-8.7c2.4 0 4.4.8 5.9 2.1l-2.5 3.1c-.9-.7-1.9-1.2-3.2-1.2-2.4 0-4 1.9-4 4.6s1.6 4.5 4.2 4.5c1.2 0 2.2-.3 3.1-1l2.4 3.1c-1.6 1.3-3.5 2.1-5.7 2.1Zm16.4-.4V13h12.7v4h-8v2.4h7v3.8h-7v2.5h8.1v3.9h-12.8Z" fill="#102223" />
</svg>

